<mxfile host="app.diagrams.net" modified="2022-11-24T10:36:57.865Z" agent="5.0 (Macintosh; Intel Mac OS X 10_15_7) AppleWebKit/605.1.15 (KHTML, like Gecko) Version/16.1 Safari/605.1.15" version="20.6.0" etag="jU42zF4YwoSVvOhnMYjP" type="github">
  <diagram id="CjIEn3wDOGkcatxiXQkK" name="第 1 页">
    <mxGraphModel dx="1235" dy="676" grid="1" gridSize="10" guides="1" tooltips="1" connect="1" arrows="1" fold="1" page="1" pageScale="1" pageWidth="827" pageHeight="1169" math="0" shadow="0">
      <root>
        <mxCell id="0" />
        <mxCell id="1" parent="0" />
        <mxCell id="IIdTklA1rR8bNfQOeFFx-1" value="" style="rounded=1;whiteSpace=wrap;html=1;arcSize=3;" vertex="1" parent="1">
          <mxGeometry x="180" y="60" width="250" height="480" as="geometry" />
        </mxCell>
        <mxCell id="IIdTklA1rR8bNfQOeFFx-4" value="" style="rounded=0;whiteSpace=wrap;html=1;" vertex="1" parent="1">
          <mxGeometry x="180" y="90" width="250" height="130" as="geometry" />
        </mxCell>
        <mxCell id="IIdTklA1rR8bNfQOeFFx-7" value="" style="rounded=0;whiteSpace=wrap;html=1;" vertex="1" parent="1">
          <mxGeometry x="180" y="220" width="250" height="320" as="geometry" />
        </mxCell>
        <mxCell id="IIdTklA1rR8bNfQOeFFx-8" value="已选标签" style="text;html=1;strokeColor=none;fillColor=none;align=center;verticalAlign=middle;whiteSpace=wrap;rounded=0;" vertex="1" parent="1">
          <mxGeometry x="190" y="110" width="60" height="30" as="geometry" />
        </mxCell>
        <mxCell id="IIdTklA1rR8bNfQOeFFx-9" value="晴天｜X" style="rounded=1;whiteSpace=wrap;html=1;" vertex="1" parent="1">
          <mxGeometry x="250" y="110" width="80" height="30" as="geometry" />
        </mxCell>
        <mxCell id="IIdTklA1rR8bNfQOeFFx-10" value="待选标签" style="text;html=1;strokeColor=none;fillColor=none;align=center;verticalAlign=middle;whiteSpace=wrap;rounded=0;" vertex="1" parent="1">
          <mxGeometry x="190" y="230" width="60" height="30" as="geometry" />
        </mxCell>
        <mxCell id="IIdTklA1rR8bNfQOeFFx-11" value="" style="shape=table;html=1;whiteSpace=wrap;startSize=0;container=1;collapsible=0;childLayout=tableLayout;rounded=1;" vertex="1" parent="1">
          <mxGeometry x="200" y="260" width="200" height="60" as="geometry" />
        </mxCell>
        <mxCell id="IIdTklA1rR8bNfQOeFFx-12" value="" style="shape=tableRow;horizontal=0;startSize=0;swimlaneHead=0;swimlaneBody=0;top=0;left=0;bottom=0;right=0;collapsible=0;dropTarget=0;fillColor=none;points=[[0,0.5],[1,0.5]];portConstraint=eastwest;rounded=1;" vertex="1" parent="IIdTklA1rR8bNfQOeFFx-11">
          <mxGeometry width="200" height="20" as="geometry" />
        </mxCell>
        <mxCell id="IIdTklA1rR8bNfQOeFFx-13" value="" style="shape=partialRectangle;html=1;whiteSpace=wrap;connectable=0;fillColor=none;top=0;left=0;bottom=0;right=0;overflow=hidden;rounded=1;" vertex="1" parent="IIdTklA1rR8bNfQOeFFx-12">
          <mxGeometry width="67" height="20" as="geometry">
            <mxRectangle width="67" height="20" as="alternateBounds" />
          </mxGeometry>
        </mxCell>
        <mxCell id="IIdTklA1rR8bNfQOeFFx-14" value="" style="shape=partialRectangle;html=1;whiteSpace=wrap;connectable=0;fillColor=none;top=0;left=0;bottom=0;right=0;overflow=hidden;rounded=1;" vertex="1" parent="IIdTklA1rR8bNfQOeFFx-12">
          <mxGeometry x="67" width="66" height="20" as="geometry">
            <mxRectangle width="66" height="20" as="alternateBounds" />
          </mxGeometry>
        </mxCell>
        <mxCell id="IIdTklA1rR8bNfQOeFFx-15" value="" style="shape=partialRectangle;html=1;whiteSpace=wrap;connectable=0;fillColor=none;top=0;left=0;bottom=0;right=0;overflow=hidden;rounded=1;" vertex="1" parent="IIdTklA1rR8bNfQOeFFx-12">
          <mxGeometry x="133" width="67" height="20" as="geometry">
            <mxRectangle width="67" height="20" as="alternateBounds" />
          </mxGeometry>
        </mxCell>
        <mxCell id="IIdTklA1rR8bNfQOeFFx-16" value="" style="shape=tableRow;horizontal=0;startSize=0;swimlaneHead=0;swimlaneBody=0;top=0;left=0;bottom=0;right=0;collapsible=0;dropTarget=0;fillColor=none;points=[[0,0.5],[1,0.5]];portConstraint=eastwest;rounded=1;" vertex="1" parent="IIdTklA1rR8bNfQOeFFx-11">
          <mxGeometry y="20" width="200" height="20" as="geometry" />
        </mxCell>
        <mxCell id="IIdTklA1rR8bNfQOeFFx-17" value="" style="shape=partialRectangle;html=1;whiteSpace=wrap;connectable=0;fillColor=none;top=0;left=0;bottom=0;right=0;overflow=hidden;rounded=1;" vertex="1" parent="IIdTklA1rR8bNfQOeFFx-16">
          <mxGeometry width="67" height="20" as="geometry">
            <mxRectangle width="67" height="20" as="alternateBounds" />
          </mxGeometry>
        </mxCell>
        <mxCell id="IIdTklA1rR8bNfQOeFFx-18" value="" style="shape=partialRectangle;html=1;whiteSpace=wrap;connectable=0;fillColor=none;top=0;left=0;bottom=0;right=0;overflow=hidden;rounded=1;" vertex="1" parent="IIdTklA1rR8bNfQOeFFx-16">
          <mxGeometry x="67" width="66" height="20" as="geometry">
            <mxRectangle width="66" height="20" as="alternateBounds" />
          </mxGeometry>
        </mxCell>
        <mxCell id="IIdTklA1rR8bNfQOeFFx-19" value="" style="shape=partialRectangle;html=1;whiteSpace=wrap;connectable=0;fillColor=none;top=0;left=0;bottom=0;right=0;overflow=hidden;rounded=1;" vertex="1" parent="IIdTklA1rR8bNfQOeFFx-16">
          <mxGeometry x="133" width="67" height="20" as="geometry">
            <mxRectangle width="67" height="20" as="alternateBounds" />
          </mxGeometry>
        </mxCell>
        <mxCell id="IIdTklA1rR8bNfQOeFFx-20" value="" style="shape=tableRow;horizontal=0;startSize=0;swimlaneHead=0;swimlaneBody=0;top=0;left=0;bottom=0;right=0;collapsible=0;dropTarget=0;fillColor=none;points=[[0,0.5],[1,0.5]];portConstraint=eastwest;rounded=1;" vertex="1" parent="IIdTklA1rR8bNfQOeFFx-11">
          <mxGeometry y="40" width="200" height="20" as="geometry" />
        </mxCell>
        <mxCell id="IIdTklA1rR8bNfQOeFFx-21" value="" style="shape=partialRectangle;html=1;whiteSpace=wrap;connectable=0;fillColor=none;top=0;left=0;bottom=0;right=0;overflow=hidden;rounded=1;" vertex="1" parent="IIdTklA1rR8bNfQOeFFx-20">
          <mxGeometry width="67" height="20" as="geometry">
            <mxRectangle width="67" height="20" as="alternateBounds" />
          </mxGeometry>
        </mxCell>
        <mxCell id="IIdTklA1rR8bNfQOeFFx-22" value="" style="shape=partialRectangle;html=1;whiteSpace=wrap;connectable=0;fillColor=none;top=0;left=0;bottom=0;right=0;overflow=hidden;rounded=1;" vertex="1" parent="IIdTklA1rR8bNfQOeFFx-20">
          <mxGeometry x="67" width="66" height="20" as="geometry">
            <mxRectangle width="66" height="20" as="alternateBounds" />
          </mxGeometry>
        </mxCell>
        <mxCell id="IIdTklA1rR8bNfQOeFFx-23" value="" style="shape=partialRectangle;html=1;whiteSpace=wrap;connectable=0;fillColor=none;top=0;left=0;bottom=0;right=0;overflow=hidden;pointerEvents=1;rounded=1;" vertex="1" parent="IIdTklA1rR8bNfQOeFFx-20">
          <mxGeometry x="133" width="67" height="20" as="geometry">
            <mxRectangle width="67" height="20" as="alternateBounds" />
          </mxGeometry>
        </mxCell>
        <mxCell id="IIdTklA1rR8bNfQOeFFx-25" value="" style="shape=image;verticalLabelPosition=bottom;labelBackgroundColor=default;verticalAlign=top;aspect=fixed;imageAspect=0;image=data:image/png,iVBORw0KGgoAAAANSUhEUgAAAGYAAAAmCAYAAAA2h+4OAAAMQGlDQ1BJQ0MgUHJvZmlsZQAASImVVwdYU8kWnluSkEBoAaQTehMEpASQEkILIL0INkISIJQQA0HFjiwquHaxgA1dFVHsgNgRxcKi2LAvqKgo62LBrrxJAV33le/N982d//5z5j9nzswtA4DaKY5IlIOqA5ArLBDHhgTQxyWn0ElPgDKgAB1gAJw43HwRMzo6AsAy1P69vLsJEGl7zUGq9c/+/1o0ePx8LgBINMRpvHxuLsSHAMCruCJxAQBEKW8+tUAkxbACLTEMEOKFUpwhx1VSnCbH+2Q28bEsiFsAUFLhcMQZAKhegTy9kJsBNVT7IXYS8gRCANToEPvm5ubxIE6F2AbaiCCW6jPSftDJ+Jtm2rAmh5MxjOVzkRWlQEG+KIcz/f9Mx/8uuTmSIR9WsKpkikNjpXOGebuVnRcuxSoQ9wnTIqMg1oT4g4Ans4cYpWRKQhPk9qghN58FcwbXGaBOPE5gOMSGEAcLcyIjFHxauiCYDTHcIeg0QQE7HmJdiBfy84PiFDabxXmxCl9ofbqYxVTw5zlimV+prweS7ASmQv91Jp+t0MdUizLjkyCmQGxRKEiMhFgVYsf87Lhwhc2YokxW5JCNWBIrjd8C4li+MCRAro8VpouDYxX2Zbn5Q/PFNmcK2JEKfKAgMz5Unh+shcuRxQ/ngl3hC5kJQzr8/HERQ3Ph8QOD5HPHnvGFCXEKnQ+igoBY+VicIsqJVtjjZvycEClvBrFrfmGcYiyeWAA3pFwfTxcVRMfL48SLsjhh0fJ48GUgArBAIKADCaxpIA9kAUF7X0MfvJP3BAMOEIMMwAcOCmZoRJKsRwivcaAI/AkRH+QPjwuQ9fJBIeS/DrPyqwNIl/UWykZkgycQ54JwkAPvJbJRwmFvieAxZAT/8M6BlQvjzYFV2v/v+SH2O8OETISCkQx5pKsNWRKDiIHEUGIw0RbXx31xbzwCXv1hdcEZuOfQPL7bE54QOggPCTcIXYTbkwXF4p+iHAu6oH6wIhdpP+YCt4KabngA7gPVoTKug+sDB9wV+mHiftCzG2RZirilWaH/pP23GfywGgo7shMZJY8g+5Ntfh6paqfqNqwizfWP+ZHHmjacb9Zwz8/+WT9knwfb8J8tsYXYQawVO41dwI5hDYCOncQasTbsuBQP767Hst015C1WFk821BH8w9/Qykozme9U69Tr9EXeV8CfJn1HA1aeaLpYkJFZQGfCLwKfzhZyHUfSXZxcXACQfl/kr683MbLvBqLT9p2b/wcAPicHBwePfufCTgKw3wM+/ke+czYM+OlQBuD8Ea5EXCjncOmFAN8SavBJ0wPGwBzYwPm4AHfgDfxBEAgDUSAeJINJMPpMuM/FYCqYCeaBUlAOloHVYD3YBLaCnWAPOAAawDFwGpwDl8AVcAPchbunB7wA/eAd+IwgCAmhIjREDzFBLBF7xAVhIL5IEBKBxCLJSCqSgQgRCTITmY+UIyuQ9cgWpAbZjxxBTiMXkA7kNtKN9CKvkU8ohqqgWqgRaoWOQhkoEw1H49GJaAY6BS1CS9Al6Fq0Gt2N1qOn0UvoDbQLfYEOYABTxnQwU8wBY2AsLApLwdIxMTYbK8MqsGqsDmuC63wN68L6sI84EafhdNwB7uBQPAHn4lPw2fhifD2+E6/HW/BreDfej38jUAmGBHuCF4FNGEfIIEwllBIqCNsJhwln4bPUQ3hHJBJ1iNZED/gsJhOziDOIi4kbiHuJp4gdxEfEARKJpEeyJ/mQokgcUgGplLSOtJt0knSV1EP6oKSsZKLkohSslKIkVCpWqlDapXRC6arSU6XPZHWyJdmLHEXmkaeTl5K3kZvIl8k95M8UDYo1xYcST8mizKOspdRRzlLuUd4oKyubKXsqxygLlOcqr1Xep3xeuVv5o4qmip0KS2WCikRlicoOlVMqt1XeUKlUK6o/NYVaQF1CraGeoT6gflClqTqqslV5qnNUK1XrVa+qvlQjq1mqMdUmqRWpVagdVLus1qdOVrdSZ6lz1GerV6ofUe9UH9CgaThrRGnkaizW2KVxQeOZJknTSjNIk6dZorlV84zmIxpGM6exaFzafNo22llajxZRy1qLrZWlVa61R6tdq19bU9tVO1F7mnal9nHtLh1Mx0qHrZOjs1TngM5NnU8jjEYwR/BHLBpRN+LqiPe6Brr+unzdMt29ujd0P+nR9YL0svWW6zXo3dfH9e30Y/Sn6m/UP6vfZ6Bl4G3ANSgzOGBwxxA1tDOMNZxhuNWwzXDAyNgoxEhktM7ojFGfsY6xv3GW8SrjE8a9JjQTXxOBySqTkybP6dp0Jj2HvpbeQu83NTQNNZWYbjFtN/1sZm2WYFZsttfsvjnFnGGebr7KvNm838LEYqzFTItaizuWZEuGZablGstWy/dW1lZJVgusGqyeWetas62LrGut79lQbfxspthU21y3JdoybLNtN9hesUPt3Owy7SrtLtuj9u72AvsN9h0jCSM9RwpHVo/sdFBxYDoUOtQ6dDvqOEY4Fjs2OL4cZTEqZdTyUa2jvjm5OeU4bXO666zpHOZc7Nzk/NrFzoXrUulyfTR1dPDoOaMbR79ytXflu250veVGcxvrtsCt2e2ru4e72L3OvdfDwiPVo8qjk6HFiGYsZpz3JHgGeM7xPOb50cvdq8DrgNdf3g7e2d67vJ+NsR7DH7NtzCMfMx+OzxafLl+6b6rvZt8uP1M/jl+130N/c3+e/3b/p0xbZhZzN/NlgFOAOOBwwHuWF2sW61QgFhgSWBbYHqQZlBC0PuhBsFlwRnBtcH+IW8iMkFOhhNDw0OWhnWwjNpddw+4P8wibFdYSrhIeF74+/GGEXYQ4omksOjZs7Mqx9yItI4WRDVEgih21Mup+tHX0lOijMcSY6JjKmCexzrEzY1vjaHGT43bFvYsPiF8afzfBJkGS0JyoljghsSbxfVJg0oqkrnGjxs0adylZP1mQ3JhCSklM2Z4yMD5o/OrxPRPcJpROuDnReuK0iRcm6U/KmXR8stpkzuSDqYTUpNRdqV84UZxqzkAaO60qrZ/L4q7hvuD581bxevk+/BX8p+k+6SvSn2X4ZKzM6M30y6zI7BOwBOsFr7JCszZlvc+Oyt6RPZiTlLM3Vyk3NfeIUFOYLWzJM86bltchsheVirqmeE1ZPaVfHC7eno/kT8xvLNCCP/JtEhvJL5LuQt/CysIPUxOnHpymMU04rW263fRF058WBRf9NgOfwZ3RPNN05ryZ3bOYs7bMRmanzW6eYz6nZE7P3JC5O+dR5mXP+73YqXhF8dv5SfObSoxK5pY8+iXkl9pS1VJxaecC7wWbFuILBQvbF41etG7RtzJe2cVyp/KK8i+LuYsv/ur869pfB5ekL2lf6r504zLiMuGym8v9lu9cobGiaMWjlWNX1q+irypb9Xb15NUXKlwrNq2hrJGs6VobsbZxncW6Zeu+rM9cf6MyoHJvlWHVoqr3G3gbrm7031i3yWhT+aZPmwWbb20J2VJfbVVdsZW4tXDrk22J21p/Y/xWs11/e/n2rzuEO7p2xu5sqfGoqdlluGtpLVorqe3dPWH3lT2BexrrHOq27NXZW74P7JPse74/df/NA+EHmg8yDtYdsjxUdZh2uKweqZ9e39+Q2dDVmNzYcSTsSHOTd9Pho45HdxwzPVZ5XPv40hOUEyUnBk8WnRw4JTrVdzrj9KPmyc13z4w7c70lpqX9bPjZ8+eCz51pZbaePO9z/tgFrwtHLjIuNlxyv1Tf5tZ2+He33w+3u7fXX/a43HjF80pTx5iOE1f9rp6+Fnjt3HX29Us3Im903Ey4eatzQmfXLd6tZ7dzbr+6U3jn89259wj3yu6r3694YPig+g/bP/Z2uXcd7w7sbnsY9/DuI+6jF4/zH3/pKXlCfVLx1ORpzTOXZ8d6g3uvPB//vOeF6MXnvtI/Nf6semnz8tBf/n+19Y/r73klfjX4evEbvTc73rq+bR6IHnjwLvfd5/dlH/Q+7PzI+Nj6KenT089Tv5C+rP1q+7XpW/i3e4O5g4Mijpgj+xXAYEXT0wF4vQMAajIANHg+o4yXn/9kBZGfWWUI/CcsPyPKijsAdfD/PaYP/t10ArBvGzx+QX21CQBEUwGI9wTo6NHDdeisJjtXSgsRngM2s7+m5aaBf1PkZ84f4v65BVJVV/Bz+y+Manx37QeLzgAAAGxlWElmTU0AKgAAAAgABAEaAAUAAAABAAAAPgEbAAUAAAABAAAARgEoAAMAAAABAAIAAIdpAAQAAAABAAAATgAAAAAAAACQAAAAAQAAAJAAAAABAAKgAgAEAAAAAQAAAGagAwAEAAAAAQAAACYAAAAAs56sqQAAAAlwSFlzAAAWJQAAFiUBSVIk8AAAAi5JREFUaAXtmEFygzAMRUmnyxyAHexy/4PkANnBjgOwb/OZ+TMeNwbJwbbaSjOpySCZLz1bLrl8Pa1zM1eBD3OKXNBWAQdjdCE4GAdjtAJGZfmOcTBGK2BUlu8YB2O0Ahmy1nVVR2ljfMcoSzxNU3e/37tlWcSR8EUMYqXmYKSVevqhsPM8bxGPx0MEB1DgC0OsFE5TMBCtWXlbdo3+oBURCiUcwQmhMAZzSNpaMzAUfZQcE2o9Xq/X7na7/ZCR0s/84gDMgbmOrAmYWHQquSPxte/3fS+CE+dHnYCCOST2KXE60yclGnBgUuFnatLMRX3Uy9jwe3jN+xooiLnU/Nk/BYXiMWoTCGNrXktyoZ6cnKq1MmkiWG3wtW6pthbrzoGCOaqASUGBaHxi+ytwcqGgHsXPmD0o7NcQEvdlfg994PdfrOiOkUJJtQXrOyeVHxfPO/qLgcFLFFc9hWJMbe89OJIXsvAZNa6PoFBDLpxiYPASNQwD9W1jCgqdXsHBHJIXMs5RY0xBQX74xJYDp+gZM47jphE/QxxBYTI8U5AMoHAO3m897kGhdmiMuwW/hz57uVR5j0Er0q76nJi9RM+4J4WCZ2l8X2kr1srCh2mhIDYnJnzm2de1z8wqYM4uUov5sFBqnpkORkEZ5x3haM5M/kOgOTOrnDGK3H+Fa875p41xMEaXgrcyB2O0AkZl+Y5xMEYrYFSW7xgHY7QCRmX5jnEwRitgVJbvGKNgvgEkmD81Ypqs5gAAAABJRU5ErkJggg==;" vertex="1" parent="1">
          <mxGeometry x="350" y="62" width="75.16" height="28" as="geometry" />
        </mxCell>
        <mxCell id="IIdTklA1rR8bNfQOeFFx-26" value="环境标签" style="text;html=1;strokeColor=none;fillColor=none;align=center;verticalAlign=middle;whiteSpace=wrap;rounded=0;" vertex="1" parent="1">
          <mxGeometry x="275" y="60" width="60" height="30" as="geometry" />
        </mxCell>
      </root>
    </mxGraphModel>
  </diagram>
</mxfile>
